<svg width="1684" height="269" viewBox="0 0 1684 269" fill="none" xmlns="http://www.w3.org/2000/svg">
<path d="M1308.87 77.9926L1286.88 55.4843C1295.97 51.9034 1305.44 49.3457 1315.27 47.811C1325.3 46.1059 1335.6 45.4238 1346.17 45.7648L1308.87 77.9926ZM1306.36 228.901L1298.85 213.81C1304.97 213.469 1310.73 213.042 1316.11 212.531C1321.68 212.019 1327.06 211.423 1332.25 210.74C1330.96 216.709 1328.45 221.824 1324.74 226.087C1321.03 230.35 1316.57 233.675 1311.38 236.062C1306.36 238.45 1301.26 239.643 1296.06 239.643C1290.68 239.643 1285.67 238.194 1281.03 235.295C1276.58 232.396 1273.14 228.218 1270.73 222.762L1311.1 55.4843L1346.17 45.7648L1306.36 228.901Z" fill="#191919"/>
<path d="M1395.44 238.62C1381.33 239.473 1370.47 236.318 1362.86 229.156C1355.44 221.824 1351.73 210.314 1351.73 194.627C1351.73 183.372 1353.58 177.557 1357.3 167.155C1361.01 156.754 1366.02 147.461 1372.33 139.276C1378.82 130.92 1386.16 124.355 1394.32 119.581C1402.67 114.806 1411.4 112.419 1420.49 112.419C1427.91 112.419 1432.04 114.47 1439.7 117.791C1447.36 121.111 1449.63 124.871 1451.95 127.613L1451.67 137.077C1438.87 131.279 1418.26 131.554 1397.94 134.06L1418.26 128.533C1412.7 132.796 1406.36 137.077 1401.91 143.727C1397.45 150.377 1395.16 153.873 1392.37 161.887C1389.77 169.902 1388.01 178.257 1387.08 186.953C1386.16 195.479 1386.34 204.005 1387.64 212.531L1383.74 207.671C1386.9 209.547 1390.15 211.252 1393.49 212.787C1396.83 214.151 1400.35 215.089 1404.07 215.6L1397.94 216.368C1407.04 208.694 1415.57 198.889 1423.55 186.953C1431.72 174.847 1439.51 160.438 1446.94 143.727L1453.06 149.354C1445.27 168.111 1436.73 184.907 1427.45 199.742C1418.36 214.407 1407.68 227.366 1395.44 238.62ZM1460.58 229.412L1453.9 213.81C1459.1 213.298 1464.38 212.787 1469.77 212.275C1475.33 211.593 1481 211.081 1486.75 210.74C1485.45 216.709 1482.94 221.824 1479.23 226.087C1475.71 230.35 1471.44 233.675 1466.43 236.062C1461.42 238.279 1456.31 239.387 1451.11 239.387C1445.55 239.387 1440.54 238.023 1436.08 235.295C1431.63 232.396 1428.1 228.218 1425.5 222.762L1439.42 182.094L1435.52 180.559L1453.9 109.709H1488.14L1460.58 229.412Z" fill="#191919"/>
<path d="M1571.57 240.155C1562.84 240.155 1555.05 238.108 1548.18 234.016C1541.5 229.753 1536.67 223.956 1533.7 216.623L1540.11 207.16C1547.16 211.252 1554.49 214.321 1562.1 216.368C1569.71 218.243 1578.34 219.266 1587.99 219.437L1575.19 223.273C1579.83 219.693 1584 215.344 1587.71 210.229C1591.42 204.943 1594.67 199.231 1597.46 193.092C1600.43 186.953 1602.65 180.644 1604.14 174.164C1605.81 167.514 1606.74 160.864 1606.92 154.214C1607.29 147.564 1606.83 141.084 1605.53 134.775L1609.71 139.89C1606.37 137.674 1603.02 135.969 1599.68 134.775C1596.34 133.411 1593 132.388 1589.66 131.706L1596.06 130.938C1586.6 138.441 1577.78 148.246 1569.62 160.353C1561.64 172.289 1554.21 186.186 1547.35 202.044L1540.94 196.417C1548.92 177.831 1557.37 161.29 1566.28 146.796C1575.37 132.302 1585.95 119.599 1598.01 108.686C1612.49 107.833 1623.44 111.073 1630.86 118.405C1638.29 125.737 1642 137.247 1642 152.935C1642 164.189 1640.14 175.017 1636.43 185.419C1632.72 195.82 1627.52 205.113 1620.84 213.298C1614.35 221.483 1606.92 228.048 1598.57 232.993C1590.22 237.767 1581.22 240.155 1571.57 240.155ZM1504.75 237.341L1548.74 55.4843L1584.09 45.7648L1568.23 117.638L1554.03 165.212L1557.37 166.747L1545.95 217.135C1541.13 222.421 1535.93 226.684 1530.36 229.924C1524.8 232.993 1518.58 235.465 1511.71 237.341H1504.75ZM1546.51 77.9926L1524.8 55.4843C1534.45 51.9034 1544.1 49.3457 1553.75 47.811C1563.4 46.1059 1573.51 45.4238 1584.09 45.7648L1546.51 77.9926Z" fill="#191919"/>
<path d="M297.68 105.089C313.167 105.089 326.513 107.642 337.717 112.748C348.92 117.854 357.488 125.185 363.419 134.738C369.515 144.292 372.563 155.658 372.563 168.835V172.047C372.563 184.895 369.515 196.096 363.419 205.649C357.488 215.038 348.92 222.285 337.717 227.392C326.513 232.333 313.167 234.804 297.68 234.804C282.192 234.804 268.765 232.333 257.396 227.392C246.028 222.285 237.295 215.038 231.199 205.649C225.103 196.096 222.055 184.895 222.055 172.047V168.835C222.055 155.658 225.021 144.292 230.952 134.738C237.048 125.185 245.781 117.854 257.149 112.748C268.518 107.642 282.028 105.089 297.68 105.089ZM712.293 105.089C726.297 105.089 738.819 107.477 749.857 112.254C761.061 116.866 769.711 123.373 775.808 131.773C782.068 140.009 785.199 149.48 785.199 160.187V161.175H748.375V160.187C748.375 153.598 744.997 148.245 738.242 144.127C731.652 139.844 723.002 137.703 712.293 137.703C700.101 137.703 690.791 140.421 684.365 145.856C677.94 151.127 674.728 158.87 674.728 169.082V171.8C674.728 181.683 677.94 189.259 684.365 194.53C690.791 199.637 700.101 202.19 712.293 202.19C723.167 202.19 731.899 200.213 738.489 196.26C745.08 192.142 748.375 186.707 748.375 179.953V178.965H785.199V179.953C785.199 190.824 782.151 200.461 776.055 208.861C770.123 217.097 761.638 223.521 750.6 228.133C739.726 232.58 726.956 234.804 712.293 234.804C697.135 234.804 683.871 232.251 672.503 227.145C661.299 222.038 652.649 214.791 646.553 205.402C640.621 196.013 637.656 184.895 637.656 172.047V168.835C637.656 155.822 640.622 144.539 646.553 134.985C652.649 125.432 661.299 118.101 672.503 112.995C683.871 107.724 697.135 105.089 712.293 105.089ZM877.857 105.089C899.605 105.089 916.493 109.948 928.521 119.666C940.713 129.384 946.809 142.809 946.81 159.939V190.577C946.81 197.166 950.599 200.46 958.178 200.46H969.052V231.839H948.045C940.466 231.839 933.875 230.604 928.273 228.133C922.837 225.497 918.718 221.791 915.917 217.015C903.395 228.874 885.601 234.804 862.534 234.804C845.07 234.804 831.478 231.509 821.757 224.921C812.036 218.332 807.175 209.108 807.175 197.248C807.175 187.201 810.8 179.212 818.049 173.282C825.298 167.188 835.844 163.398 849.684 161.916L910.727 155.245C908.749 143.056 897.711 136.962 877.61 136.962C873.98 136.962 870.623 137.137 867.54 137.488V105.47C870.868 105.216 874.307 105.089 877.857 105.089ZM1166.5 105.089C1189.56 105.089 1207.44 110.607 1220.13 121.643C1232.98 132.514 1239.4 147.833 1239.4 167.6V180.447H1129.18C1130.33 188.189 1134.12 194.118 1140.55 198.236C1146.97 202.354 1155.62 204.414 1166.5 204.414C1167.47 204.414 1168.42 204.4 1169.35 204.375V234.777C1168.41 234.793 1167.46 234.804 1166.5 234.804C1151.34 234.804 1138.16 232.333 1126.96 227.392C1115.75 222.285 1107.18 215.038 1101.25 205.649C1095.32 196.261 1092.36 185.224 1092.36 172.541V167.847C1092.36 154.999 1095.32 143.88 1101.25 134.491C1107.35 124.938 1115.92 117.69 1126.96 112.748C1138.16 107.642 1151.34 105.089 1166.5 105.089ZM144.811 69.7568C163.923 69.7569 178.998 74.3686 190.037 83.5928C201.076 92.8169 206.596 105.418 206.596 121.396V124.113C206.596 140.256 201.076 152.939 190.037 162.163C178.998 171.387 163.923 176 144.811 176H79.0713V231.839H42V143.397H81.0586V143.139H143.821C151.895 143.139 158.074 141.574 162.357 138.444C166.641 135.15 168.783 130.373 168.783 124.113V121.396C168.783 115.301 166.641 110.689 162.357 107.56C158.074 104.265 151.895 102.618 143.821 102.618H81.0586V102.564H42V69.7568H144.811ZM434.983 231.839H399.396V108.054H434.983V231.839ZM546.724 105.089C568.142 105.089 584.371 110.607 595.41 121.643C606.449 132.679 611.969 149.069 611.969 170.812V231.839H576.134V170.812C576.134 160.439 573.351 152.463 567.784 146.883L566.688 145.818C560.937 140.408 552.635 137.703 541.781 137.703C534.038 137.703 527.035 139.515 520.774 143.139C514.514 146.598 509.736 151.374 506.44 157.469V205.536H470.604V108.054H503.969L504.957 119.913C515.831 110.36 529.754 105.418 546.724 105.089ZM1022.64 119.419C1033.02 111.842 1045.87 108.054 1061.19 108.054H1084.17V139.68H1056.5C1041.01 139.68 1030.13 143.55 1023.87 151.292V231.839H988.284V108.054H1021.65L1022.64 119.419ZM859.074 185.883C853.637 186.542 849.601 187.695 846.965 189.342C844.329 190.989 843.011 193.295 843.011 196.26C843.011 202.848 850.342 206.144 865.006 206.144C875.551 206.144 884.859 204.578 892.933 201.448C901.171 198.154 907.184 193.789 910.974 188.354V179.953L859.074 185.883ZM297.433 137.703C285.076 137.703 275.602 140.421 269.012 145.856C262.421 151.127 259.126 158.87 259.126 169.082V171.8C259.126 181.518 262.422 189.012 269.012 194.283C275.767 199.554 285.241 202.19 297.433 202.19C309.46 202.19 318.769 199.554 325.359 194.283C332.114 189.012 335.492 181.518 335.492 171.8V169.082C335.492 159.034 332.197 151.292 325.606 145.856C319.016 140.421 309.625 137.703 297.433 137.703ZM1166.25 134.985C1156.69 134.985 1148.79 136.715 1142.53 140.174C1136.26 143.633 1132.15 148.492 1130.17 154.751H1201.59C1199.61 148.492 1195.58 143.633 1189.48 140.174C1183.39 136.715 1175.64 134.985 1166.25 134.985ZM417.189 51.7197C423.944 51.7197 429.3 53.6963 433.254 57.6494C437.373 61.4379 439.433 66.4624 439.433 72.7217C439.433 78.9808 437.373 84.0869 433.254 88.04C429.135 91.8286 423.78 93.7236 417.189 93.7236C410.599 93.7236 405.245 91.8285 401.126 88.04C397.007 84.0868 394.947 78.9809 394.947 72.7217C394.947 66.4624 397.007 61.4379 401.126 57.6494C405.245 53.6965 410.599 51.7198 417.189 51.7197ZM1210.73 33.1885L1186.51 87.5459H1153.39L1170.94 28H1210.73V33.1885Z" fill="#191919"/>
</svg>
