<?xml version="1.0" encoding="iso-8859-1"?>
<!-- Uploaded to: SVG Repo, www.svgrepo.com, Generator: SVG Repo Mixer Tools -->
<svg height="800px" width="800px" version="1.1" id="Layer_1" xmlns="http://www.w3.org/2000/svg" xmlns:xlink="http://www.w3.org/1999/xlink" 
	 viewBox="0 0 512 512" xml:space="preserve">
<g transform="translate(1 1)">
	<g>
		<path style="fill:#FFE100;" d="M369.759,263.828c-19.421,0-35.31-15.89-35.31-35.31s15.89-35.31,35.31-35.31
			c19.421,0,35.31,15.89,35.31,35.31S389.179,263.828,369.759,263.828z M369.759,210.862c-9.71,0-17.655,7.945-17.655,17.655
			c0,9.71,7.945,17.655,17.655,17.655c9.71,0,17.655-7.945,17.655-17.655C387.414,218.807,379.469,210.862,369.759,210.862z"/>
		<path style="fill:#FFE100;" d="M134.945,471.276c-1.766,0-2.648,0-4.414-0.883l-60.028-35.31
			c-1.766-0.883-3.531-3.531-4.414-5.297c-0.883-1.765,0-4.414,0.883-7.062c1.766-2.648,2.648-6.179,2.648-8.828
			c0-9.71-7.945-17.655-17.655-17.655c-5.297,0-8.828-3.531-8.828-8.828v-70.621c0-5.297,3.531-8.828,8.828-8.828
			c9.71,0,17.655-7.945,17.655-17.655c0-2.648-0.883-6.179-2.648-8.828c-0.883-1.766-1.766-4.414-0.883-7.062
			c0.883-2.648,1.766-4.414,4.414-5.297l60.028-35.31c4.414-2.648,9.71-0.883,12.359,3.531c3.531,5.297,8.828,8.828,15.007,8.828
			c7.062,0,12.359-3.531,15.89-9.71c1.766-4.414,7.062-6.179,11.476-3.531l59.145,29.131c4.414,1.766,6.179,7.062,3.531,11.476
			c-0.883,2.648-1.766,5.297-1.766,7.945c0,9.71,7.945,17.655,17.655,17.655c5.297,0,8.828,3.531,8.828,8.828v79.448
			c0,4.414-3.531,8.828-8.828,8.828c-9.71,0-17.655,7.945-17.655,17.655c0,2.648,0.883,6.179,2.648,8.828
			c2.648,4.414,0.883,9.71-3.531,12.359l-60.028,35.31c-4.414,2.648-9.71,0.883-12.359-3.531c-3.531-5.297-8.828-8.828-15.007-8.828
			s-12.359,3.531-15.007,8.828C141.124,469.51,138.476,471.276,134.945,471.276z M85.51,423.607l46.786,27.366
			c6.179-7.062,15.89-10.593,24.717-10.593c9.71,0,18.538,3.531,24.717,10.593l46.786-27.366c0.883-3.531,0-6.179,0-9.71
			c0-16.772,11.476-30.014,26.483-34.428v-64.441c-15.007-3.531-26.483-17.655-26.483-34.428c0-2.648,0-5.297,0.883-7.062
			l-45.021-22.069c-6.179,7.945-15.89,12.359-26.483,12.359c-9.71,0-18.538-3.531-24.717-10.593L86.393,280.6
			c0.883,3.531,0.883,6.179,0.883,9.71c0,16.772-11.476,30.014-26.483,34.428v55.614c15.007,3.531,26.483,17.655,26.483,34.428
			C87.276,417.428,87.276,420.076,85.51,423.607z"/>
		<path style="fill:#FFE100;" d="M239.993,278.835c-1.766,0-2.648,0-3.531-0.883l-59.145-29.131
			c-1.766-0.883-3.531-2.648-4.414-5.297c-0.883-2.648-0.883-4.414,0.883-7.062c0.883-2.648,1.766-5.297,1.766-7.945
			c0-9.71-7.945-17.655-17.655-17.655c-5.297,0-8.828-3.531-8.828-8.828v-79.448c0-5.297,3.531-8.828,8.828-8.828
			c9.71,0,17.655-7.945,17.655-17.655c0-2.648-0.883-6.179-2.648-8.828c-0.883-1.766-1.766-4.414-0.883-7.062
			c0.883-2.648,1.766-4.414,4.414-5.297l60.028-35.31c4.414-1.766,9.71-0.883,12.359,3.531c3.531,5.297,8.828,8.828,15.007,8.828
			s12.359-3.531,15.007-8.828c2.648-4.414,7.945-5.297,12.359-3.531l60.028,35.31c1.766,0.883,3.531,3.531,4.414,5.297
			c0.883,2.648,0,4.414-0.883,7.062c-1.766,2.648-2.648,6.179-2.648,8.828c0,9.71,7.945,17.655,17.655,17.655
			c5.297,0,8.828,3.531,8.828,8.828v79.448c0,4.414-3.531,8.828-8.828,8.828c-9.71,0-17.655,7.945-17.655,17.655
			c0,2.648,0.883,5.297,1.766,7.945c1.766,4.414,0,9.71-3.531,11.476l-59.145,29.131c-4.414,1.766-9.71,0-11.476-3.531
			c-2.648-6.179-8.828-9.71-15.89-9.71c-7.062,0-12.359,3.531-15.89,9.71C246.172,277.069,243.524,278.835,239.993,278.835z
			 M192.324,235.579l45.021,22.069c6.179-7.945,15.89-12.359,26.483-12.359c10.593,0,20.303,4.414,26.483,12.359l45.021-22.069
			c-0.883-1.766-0.883-4.414-0.883-7.062c0-16.772,11.476-30.014,26.483-34.428v-64.441c-15.007-3.531-26.483-17.655-26.483-34.428
			c0-3.531,0.883-6.179,1.766-9.71l-46.786-27.366c-7.062,7.945-15.89,11.476-25.6,11.476c-9.71,0-18.538-3.531-24.717-10.593
			l-46.786,27.366c0.883,3.531,0.883,6.179,0.883,9.71c0,16.772-11.476,30.014-26.483,34.428v64.441
			c15.007,3.531,26.483,17.655,26.483,34.428C193.207,231.166,193.207,233.814,192.324,235.579z"/>
	</g>
	<g>
		<path style="fill:#FDCC00;" d="M281.483,34.31c0-15.007-11.476-26.483-26.483-26.483s-26.483,11.476-26.483,26.483
			S239.993,60.793,255,60.793S281.483,49.317,281.483,34.31"/>
		<path style="fill:#FDCC00;" d="M175.552,96.103c0-15.007-11.476-26.483-26.483-26.483c-15.007,0-26.483,11.476-26.483,26.483
			s11.476,26.483,26.483,26.483S175.552,111.11,175.552,96.103"/>
		<path style="fill:#FDCC00;" d="M387.414,96.103c0-15.007-11.476-26.483-26.483-26.483s-26.483,11.476-26.483,26.483
			s11.476,26.483,26.483,26.483S387.414,110.228,387.414,96.103"/>
		<path style="fill:#FDCC00;" d="M281.483,413.897c0-15.007-11.476-26.483-26.483-26.483s-26.483,11.476-26.483,26.483
			s11.476,26.483,26.483,26.483S281.483,428.903,281.483,413.897"/>
		<path style="fill:#FDCC00;" d="M175.552,475.69c0-15.007-11.476-26.483-26.483-26.483c-15.007,0-26.483,11.476-26.483,26.483
			c0,15.007,11.476,26.483,26.483,26.483S175.552,490.697,175.552,475.69"/>
		<path style="fill:#FDCC00;" d="M175.552,228.517c0-15.007-11.476-26.483-26.483-26.483c-15.007,0-26.483,11.476-26.483,26.483
			c0,15.007,11.476,26.483,26.483,26.483S175.552,243.524,175.552,228.517"/>
		<path style="fill:#FDCC00;" d="M69.621,290.31c0-15.007-11.476-26.483-26.483-26.483s-26.483,11.476-26.483,26.483
			c0,15.007,11.476,26.483,26.483,26.483S69.621,305.317,69.621,290.31"/>
		<path style="fill:#FDCC00;" d="M281.483,281.483C281.483,266.476,270.007,255,255,255s-26.483,11.476-26.483,26.483
			s11.476,26.483,26.483,26.483S281.483,296.49,281.483,281.483"/>
		<path style="fill:#FDCC00;" d="M69.621,413.897c0-15.007-11.476-26.483-26.483-26.483s-26.483,11.476-26.483,26.483
			s11.476,26.483,26.483,26.483S69.621,428.903,69.621,413.897"/>
	</g>
	<path style="fill:#FFE100;" d="M346.807,471.276c-1.766,0-2.648,0-4.414-0.883l-60.028-35.31c-1.766-0.883-3.531-3.531-4.414-5.297
		c-0.883-1.765,0-4.414,0.883-7.062c1.766-2.648,2.648-6.179,2.648-8.828c0-9.71-7.945-17.655-17.655-17.655
		c-5.297,0-8.828-3.531-8.828-8.828v-79.448c0-5.297,3.531-8.828,8.828-8.828c9.71,0,17.655-7.945,17.655-17.655
		c0-2.648-0.883-5.297-1.766-7.945c-1.766-4.414,0-9.71,3.531-11.476l59.145-29.131c4.414-1.766,9.71,0,11.476,3.531
		c2.648,6.179,8.828,9.71,15.89,9.71c6.179,0,12.359-3.531,15.007-8.828c2.648-4.414,7.945-5.297,12.359-3.531l60.028,35.31
		c1.766,0.883,3.531,3.531,4.414,5.297s0,4.414-0.883,7.062c-1.766,2.648-2.648,6.179-2.648,8.828
		c0,9.71,7.945,17.655,17.655,17.655c5.297,0,8.828,3.531,8.828,8.828v70.621c0,4.414-3.531,8.828-8.828,8.828
		c-9.71,0-17.655,7.945-17.655,17.655c0,2.648,0.883,6.179,2.648,8.828c2.648,4.414,0.883,9.71-3.531,12.359l-60.028,35.31
		c-4.414,2.648-9.71,0.883-12.359-3.531c-3.531-5.297-8.828-8.828-15.007-8.828c-6.179,0-12.359,3.531-15.007,8.828
		C352.986,469.51,350.338,471.276,346.807,471.276z M297.372,423.607l46.786,27.366c6.179-7.062,15.89-10.593,24.717-10.593
		c9.71,0,18.538,3.531,24.717,10.593l46.786-27.366c0.883-3.531,0-6.179,0-9.71c0-16.772,11.476-30.014,26.483-34.428v-55.614
		c-15.007-3.531-26.483-17.655-26.483-34.428c0-3.531,0.883-6.179,1.766-9.71l-46.786-27.366c-7.062,7.945-15.89,11.476-25.6,11.476
		c-10.593,0-20.303-4.414-26.483-12.359l-45.021,22.069c0.883,2.648,0.883,5.297,0.883,7.945c0,16.772-11.476,30.014-26.483,34.428
		v64.441c15.007,3.531,26.483,17.655,26.483,34.428C299.138,417.428,299.138,420.076,297.372,423.607z"/>
	<g>
		<path style="fill:#FDCC00;" d="M387.414,228.517c0-15.007-11.476-26.483-26.483-26.483s-26.483,11.476-26.483,26.483
			c0,15.007,11.476,26.483,26.483,26.483S387.414,243.524,387.414,228.517"/>
		<path style="fill:#FDCC00;" d="M493.345,290.31c0-15.007-11.476-26.483-26.483-26.483s-26.483,11.476-26.483,26.483
			c0,15.007,11.476,26.483,26.483,26.483S493.345,305.317,493.345,290.31"/>
		<path style="fill:#FDCC00;" d="M493.345,413.897c0-15.007-11.476-26.483-26.483-26.483s-26.483,11.476-26.483,26.483
			s11.476,26.483,26.483,26.483S493.345,428.903,493.345,413.897"/>
		<path style="fill:#FDCC00;" d="M387.414,475.69c0-15.007-11.476-26.483-26.483-26.483s-26.483,11.476-26.483,26.483
			c0,15.007,11.476,26.483,26.483,26.483S387.414,489.814,387.414,475.69"/>
	</g>
	<path d="M255,69.621c-19.421,0-35.31-15.89-35.31-35.31S235.579-1,255-1s35.31,15.89,35.31,35.31S274.421,69.621,255,69.621z
		 M255,16.655c-9.71,0-17.655,7.945-17.655,17.655S245.29,51.966,255,51.966c9.71,0,17.655-7.945,17.655-17.655
		S264.71,16.655,255,16.655z"/>
	<path d="M149.069,131.414c-19.421,0-35.31-15.89-35.31-35.31s15.89-35.31,35.31-35.31s35.31,15.89,35.31,35.31
		S168.49,131.414,149.069,131.414z M149.069,78.448c-9.71,0-17.655,7.945-17.655,17.655s7.945,17.655,17.655,17.655
		c9.71,0,17.655-7.945,17.655-17.655S158.779,78.448,149.069,78.448z"/>
	<path d="M360.931,131.414c-19.421,0-35.31-15.89-35.31-35.31s15.89-35.31,35.31-35.31s35.31,15.89,35.31,35.31
		S380.352,131.414,360.931,131.414z M360.931,78.448c-9.71,0-17.655,7.945-17.655,17.655s7.945,17.655,17.655,17.655
		s17.655-7.945,17.655-17.655S370.641,78.448,360.931,78.448z"/>
	<path d="M360.931,263.828c-19.421,0-35.31-15.89-35.31-35.31s15.89-35.31,35.31-35.31s35.31,15.89,35.31,35.31
		S380.352,263.828,360.931,263.828z M360.931,210.862c-9.71,0-17.655,7.945-17.655,17.655c0,9.71,7.945,17.655,17.655,17.655
		s17.655-7.945,17.655-17.655C378.586,218.807,370.641,210.862,360.931,210.862z"/>
	<path d="M149.069,263.828c-19.421,0-35.31-15.89-35.31-35.31s15.89-35.31,35.31-35.31s35.31,15.89,35.31,35.31
		S168.49,263.828,149.069,263.828z M149.069,210.862c-9.71,0-17.655,7.945-17.655,17.655c0,9.71,7.945,17.655,17.655,17.655
		c9.71,0,17.655-7.945,17.655-17.655C166.724,218.807,158.779,210.862,149.069,210.862z"/>
	<path d="M360.931,511c-19.421,0-35.31-15.89-35.31-35.31c0-19.421,15.89-35.31,35.31-35.31s35.31,15.89,35.31,35.31
		C396.241,495.11,380.352,511,360.931,511z M360.931,458.034c-9.71,0-17.655,7.945-17.655,17.655c0,9.71,7.945,17.655,17.655,17.655
		s17.655-7.945,17.655-17.655C378.586,465.979,370.641,458.034,360.931,458.034z"/>
	<path d="M149.069,511c-19.421,0-35.31-15.89-35.31-35.31c0-19.421,15.89-35.31,35.31-35.31s35.31,15.89,35.31,35.31
		C184.379,495.11,168.49,511,149.069,511z M149.069,458.034c-9.71,0-17.655,7.945-17.655,17.655c0,9.71,7.945,17.655,17.655,17.655
		c9.71,0,17.655-7.945,17.655-17.655C166.724,465.979,158.779,458.034,149.069,458.034z"/>
	<path d="M255,316.793c-19.421,0-35.31-15.89-35.31-35.31s15.89-35.31,35.31-35.31s35.31,15.89,35.31,35.31
		S274.421,316.793,255,316.793z M255,263.828c-9.71,0-17.655,7.945-17.655,17.655c0,9.71,7.945,17.655,17.655,17.655
		c9.71,0,17.655-7.945,17.655-17.655S264.71,263.828,255,263.828z"/>
	<path d="M255,449.207c-19.421,0-35.31-15.89-35.31-35.31c0-19.421,15.89-35.31,35.31-35.31s35.31,15.89,35.31,35.31
		C290.31,433.317,274.421,449.207,255,449.207z M255,396.241c-9.71,0-17.655,7.945-17.655,17.655s7.945,17.655,17.655,17.655
		c9.71,0,17.655-7.945,17.655-17.655S264.71,396.241,255,396.241z"/>
	<path d="M43.138,325.621c-19.421,0-35.31-15.89-35.31-35.31c0-19.421,15.89-35.31,35.31-35.31s35.31,15.89,35.31,35.31
		C78.448,309.731,62.559,325.621,43.138,325.621z M43.138,272.655c-9.71,0-17.655,7.945-17.655,17.655s7.945,17.655,17.655,17.655
		s17.655-7.945,17.655-17.655S52.848,272.655,43.138,272.655z"/>
	<path d="M466.862,325.621c-19.421,0-35.31-15.89-35.31-35.31c0-19.421,15.89-35.31,35.31-35.31c19.421,0,35.31,15.89,35.31,35.31
		C502.172,309.731,486.283,325.621,466.862,325.621z M466.862,272.655c-9.71,0-17.655,7.945-17.655,17.655
		s7.945,17.655,17.655,17.655s17.655-7.945,17.655-17.655S476.572,272.655,466.862,272.655z"/>
	<path d="M43.138,449.207c-19.421,0-35.31-15.89-35.31-35.31c0-19.421,15.89-35.31,35.31-35.31s35.31,15.89,35.31,35.31
		C78.448,433.317,62.559,449.207,43.138,449.207z M43.138,396.241c-9.71,0-17.655,7.945-17.655,17.655s7.945,17.655,17.655,17.655
		s17.655-7.945,17.655-17.655S52.848,396.241,43.138,396.241z"/>
	<path d="M466.862,449.207c-19.421,0-35.31-15.89-35.31-35.31c0-19.421,15.89-35.31,35.31-35.31c19.421,0,35.31,15.89,35.31,35.31
		C502.172,433.317,486.283,449.207,466.862,449.207z M466.862,396.241c-9.71,0-17.655,7.945-17.655,17.655
		s7.945,17.655,17.655,17.655s17.655-7.945,17.655-17.655S476.572,396.241,466.862,396.241z"/>
	<path d="M126.117,471.276c-1.766,0-2.648,0-4.414-0.883l-60.028-35.31c-1.766-0.883-3.531-3.531-4.414-5.297
		c-0.883-1.765,0-4.414,0.883-7.062c1.766-2.648,2.648-6.179,2.648-8.828c0-9.71-7.945-17.655-17.655-17.655
		c-5.297,0-8.828-3.531-8.828-8.828v-70.621c0-5.297,3.531-8.828,8.828-8.828c9.71,0,17.655-7.945,17.655-17.655
		c0-2.648-0.883-6.179-2.648-8.828c-0.883-1.766-1.766-4.414-0.883-7.062c0.883-2.648,1.766-4.414,4.414-5.297l60.028-35.31
		c4.414-2.648,9.71-0.883,12.359,3.531c3.531,5.297,8.828,8.828,15.007,8.828c7.062,0,12.359-3.531,15.89-9.71
		c1.766-4.414,7.062-6.179,11.476-3.531l59.145,29.131c4.414,1.766,6.179,7.062,3.531,11.476c-0.883,2.648-1.766,5.297-1.766,7.945
		c0,9.71,7.945,17.655,17.655,17.655c5.297,0,8.828,3.531,8.828,8.828v79.448c0,4.414-3.531,8.828-8.828,8.828
		c-9.71,0-17.655,7.945-17.655,17.655c0,2.648,0.883,6.179,2.648,8.828c2.648,4.414,0.883,9.71-3.531,12.359l-60.028,35.31
		c-4.414,2.648-9.71,0.883-12.359-3.531c-3.531-5.297-8.828-8.828-15.007-8.828s-12.359,3.531-15.007,8.828
		C132.297,469.51,129.648,471.276,126.117,471.276z M76.683,423.607l46.786,27.366c6.179-7.062,15.89-10.593,24.717-10.593
		c9.71,0,18.538,3.531,24.717,10.593l46.786-27.366c0.883-3.531,0-6.179,0-9.71c0-16.772,11.476-30.014,26.483-34.428v-64.441
		c-15.007-3.531-26.483-17.655-26.483-34.428c0-2.648,0-5.297,0.883-7.062l-45.021-22.069c-6.179,7.945-15.89,12.359-26.483,12.359
		c-9.71,0-18.538-3.531-24.717-10.593L77.566,280.6c0,3.531,0.883,6.179,0.883,9.71c0,16.772-11.476,30.014-26.483,34.428v55.614
		c15.007,3.531,26.483,17.655,26.483,34.428C78.448,417.428,77.566,420.076,76.683,423.607z"/>
	<path d="M231.166,278.835c-0.883,0-2.648,0-3.531-0.883l-59.145-29.131c-1.766-0.883-3.531-2.648-4.414-5.297
		c-0.883-2.648-0.883-4.414,0.883-7.062c0.883-2.648,1.766-5.297,1.766-7.945c0-9.71-7.945-17.655-17.655-17.655
		c-5.297,0-8.828-3.531-8.828-8.828v-79.448c0-5.297,3.531-8.828,8.828-8.828c9.71,0,17.655-7.945,17.655-17.655
		c0-2.648-0.883-6.179-2.648-8.828c-0.883-1.766-1.766-4.414-0.883-7.062c0.883-2.648,1.766-4.414,4.414-5.297l60.028-35.31
		c4.414-1.766,9.71-0.883,12.359,3.531c3.531,5.297,8.828,8.828,15.007,8.828s12.359-3.531,15.007-8.828
		c2.648-4.414,7.945-5.297,12.359-3.531l60.028,35.31c1.766,0.883,3.531,3.531,4.414,5.297c0.883,2.648,0,4.414-0.883,7.062
		c-1.766,2.648-2.648,6.179-2.648,8.828c0,9.71,7.945,17.655,17.655,17.655c5.297,0,8.828,3.531,8.828,8.828v79.448
		c0,4.414-3.531,8.828-8.828,8.828c-9.71,0-17.655,7.945-17.655,17.655c0,2.648,0.883,5.297,1.766,7.945
		c1.766,4.414,0,9.71-3.531,11.476l-59.145,29.131c-4.414,1.766-9.71,0-11.476-3.531c-2.648-6.179-8.828-9.71-15.89-9.71
		c-7.062,0-12.359,3.531-15.89,9.71C237.345,277.069,234.697,278.835,231.166,278.835z M183.497,235.579l45.021,22.069
		c6.179-7.945,15.89-12.359,26.483-12.359s20.303,4.414,26.483,12.359l45.021-22.069c-0.883-1.766-0.883-4.414-0.883-7.062
		c0-16.772,11.476-30.014,26.483-34.428v-64.441c-15.007-3.531-26.483-17.655-26.483-34.428c0-3.531,0.883-6.179,1.766-9.71
		L280.6,58.145c-7.062,7.945-15.89,11.476-25.6,11.476c-9.71,0-18.538-3.531-24.717-10.593l-46.786,27.366
		c0,3.531,0.883,6.179,0.883,9.71c0,16.772-11.476,30.014-26.483,34.428v64.441c15.007,3.531,26.483,17.655,26.483,34.428
		C184.379,231.166,184.379,233.814,183.497,235.579z"/>
	<path d="M337.979,471.276c-1.766,0-2.648,0-4.414-0.883l-60.028-35.31c-1.766-0.883-3.531-3.531-4.414-5.297
		c-0.883-1.765,0-4.414,0.883-7.062c1.766-2.648,2.648-6.179,2.648-8.828c0-9.71-7.945-17.655-17.655-17.655
		c-5.297,0-8.828-3.531-8.828-8.828v-79.448c0-5.297,3.531-8.828,8.828-8.828c9.71,0,17.655-7.945,17.655-17.655
		c0-2.648-0.883-5.297-1.766-7.945c-1.766-4.414,0-9.71,3.531-11.476l59.145-29.131c4.414-1.766,9.71,0,11.476,3.531
		c2.648,6.179,8.828,9.71,15.89,9.71c6.179,0,12.359-3.531,15.007-8.828c2.648-4.414,7.945-5.297,12.359-3.531l60.028,35.31
		c1.766,0.883,3.531,3.531,4.414,5.297s0,4.414-0.883,7.062c-1.766,2.648-2.648,6.179-2.648,8.828
		c0,9.71,7.945,17.655,17.655,17.655c5.297,0,8.828,3.531,8.828,8.828v70.621c0,4.414-3.531,8.828-8.828,8.828
		c-9.71,0-17.655,7.945-17.655,17.655c0,2.648,0.883,6.179,2.648,8.828c2.648,4.414,0.883,9.71-3.531,12.359l-60.028,35.31
		c-4.414,2.648-9.71,0.883-12.359-3.531c-3.531-5.297-8.828-8.828-15.007-8.828s-12.359,3.531-15.007,8.828
		C344.159,469.51,341.51,471.276,337.979,471.276z M288.545,423.607l46.786,27.366c6.179-7.062,15.89-10.593,24.717-10.593
		c9.71,0,18.538,3.531,24.717,10.593l46.786-27.366c0.883-3.531,0-6.179,0-9.71c0-16.772,11.476-30.014,26.483-34.428v-55.614
		c-15.007-3.531-26.483-17.655-26.483-34.428c0-3.531,0.883-6.179,1.766-9.71l-46.786-27.366c-7.062,7.945-15.89,11.476-25.6,11.476
		c-10.593,0-20.303-4.414-26.483-12.359l-45.021,22.069c0.883,2.648,0.883,5.297,0.883,7.945c0,16.772-11.476,30.014-26.483,34.428
		v64.441c15.007,3.531,26.483,17.655,26.483,34.428C290.31,417.428,289.428,420.076,288.545,423.607z"/>
</g>
</svg>